<svg width="304" height="50" viewBox="0 0 304 50" fill="none" xmlns="http://www.w3.org/2000/svg">
<path d="M34 7.4V9H30.8V37.8H34V39.4H18.8V37.8H21.6V23.8H12.4V37.8H15.2V39.4H1.22637e-05V37.8H3.20001V9H1.22637e-05V7.4H15.2V9H12.4V22.2H21.6V9H18.8V7.4H34ZM44.5059 39.4L40.7859 35.68V19.12L44.5059 15.4H59.866L63.5859 19.12V25.68L59.866 29.4H49.9859V37.8H59.186L62.546 34.44L63.7859 35.68L60.0659 39.4H44.5059ZM49.9859 17V27.8H54.386V17H49.9859ZM99.2322 37.8V39.4H90.5522L87.7522 36.56L84.9122 39.4H74.9122L71.1922 35.68V19.12L74.9122 15.4H84.6722L86.8322 17.56V5.8H83.6322V4.2H92.3122L96.0322 7.92V37.8H99.2322ZM86.8322 35V20.04L83.7922 17H80.5922V37.8H84.0322L86.8322 35ZM130.422 15.4V45.68L126.702 49.4H108.942L105.622 46.08V41.4H114.622V47.8H121.222V35.08L119.302 37H109.542L105.822 33.28V19.12L109.542 15.4H119.302L122.142 18.2L124.942 15.4H130.422ZM121.222 32.6V19.8L118.422 17H114.822V35.4H118.422L121.222 32.6ZM142.131 39.4L138.411 35.68V19.12L142.131 15.4H157.491L161.211 19.12V25.68L157.491 29.4H147.611V37.8H156.811L160.171 34.44L161.411 35.68L157.691 39.4H142.131ZM147.611 17V27.8H152.011V17H147.611ZM208.177 9V37.8H210.977V39.4H194.977V37.8H198.977V9.24L191.097 39.4H181.697L173.017 9.08V37.8H177.017V39.4H168.017V37.8H171.217V9H168.017V7.4H181.937L190.137 36.04L197.617 7.4H210.977V9H208.177ZM224.249 12.2L218.169 6.08L224.289 -1.43051e-06L230.369 6.12L224.249 12.2ZM232.569 37.8V39.4H223.889L220.169 35.68V17H216.969V15.4H225.649L229.369 19.12V37.8H232.569ZM268.556 37.8V39.4H259.476L256.156 36.08V17H253.356L250.556 19.8V37.8H252.556V39.4H238.156V37.8H241.356V17H238.156V15.4H246.836L249.676 18.2L252.476 15.4H261.636L265.356 19.12V37.8H268.556ZM303.388 37.8V39.4H294.708L291.908 36.56L289.068 39.4H279.068L275.348 35.68V19.12L279.068 15.4H288.828L290.988 17.56V5.8H287.788V4.2H296.468L300.188 7.92V37.8H303.388ZM290.988 35V20.04L287.948 17H284.748V37.8H288.188L290.988 35Z" fill="white"/>
</svg>
